<svg width="42" height="42" viewBox="0 0 42 42" fill="none" xmlns="http://www.w3.org/2000/svg">
<path d="M21.0003 0.166748C18.2645 0.166748 15.5554 0.705618 13.0278 1.75259C10.5001 2.79956 8.20349 4.33414 6.26893 6.26869C2.36193 10.1757 0.166992 15.4747 0.166992 21.0001C0.166992 26.5254 2.36193 31.8245 6.26893 35.7315C8.20349 37.666 10.5001 39.2006 13.0278 40.2476C15.5554 41.2945 18.2645 41.8334 21.0003 41.8334C26.5257 41.8334 31.8247 39.6385 35.7317 35.7315C39.6387 31.8245 41.8337 26.5254 41.8337 21.0001C41.8337 18.2642 41.2948 15.5551 40.2478 13.0275C39.2008 10.4999 37.6663 8.20324 35.7317 6.26869C33.7972 4.33414 31.5005 2.79956 28.9729 1.75259C26.4453 0.705618 23.7362 0.166748 21.0003 0.166748ZM10.7295 34.0834C11.6253 32.2084 17.0837 30.3751 21.0003 30.3751C24.917 30.3751 30.3753 32.2084 31.2712 34.0834C28.4378 36.3334 24.8753 37.6668 21.0003 37.6668C17.1253 37.6668 13.5628 36.3334 10.7295 34.0834ZM34.2503 31.0626C31.2712 27.4376 24.042 26.2084 21.0003 26.2084C17.9587 26.2084 10.7295 27.4376 7.75033 31.0626C5.62533 28.2917 4.33366 24.7917 4.33366 21.0001C4.33366 11.8126 11.8128 4.33342 21.0003 4.33342C30.1878 4.33342 37.667 11.8126 37.667 21.0001C37.667 24.7917 36.3753 28.2917 34.2503 31.0626ZM21.0003 8.50008C16.9587 8.50008 13.7087 11.7501 13.7087 15.7917C13.7087 19.8334 16.9587 23.0834 21.0003 23.0834C25.042 23.0834 28.292 19.8334 28.292 15.7917C28.292 11.7501 25.042 8.50008 21.0003 8.50008ZM21.0003 18.9167C20.1715 18.9167 19.3767 18.5875 18.7906 18.0015C18.2046 17.4154 17.8753 16.6206 17.8753 15.7917C17.8753 14.9629 18.2046 14.1681 18.7906 13.582C19.3767 12.996 20.1715 12.6667 21.0003 12.6667C21.8291 12.6667 22.624 12.996 23.21 13.582C23.7961 14.1681 24.1253 14.9629 24.1253 15.7917C24.1253 16.6206 23.7961 17.4154 23.21 18.0015C22.624 18.5875 21.8291 18.9167 21.0003 18.9167Z" fill="#323335"/>
</svg>
