<svg width="30" height="30" viewBox="0 0 30 30" fill="none" xmlns="http://www.w3.org/2000/svg">
<path d="M13.252 6V18L8.09842 12.75L6.00756 14.88L14.7244 23.76L23.4413 14.88L21.3504 12.75L16.1968 18V6H13.252ZM14.7244 30C12.7908 30 10.8761 29.612 9.08962 28.8582C7.30317 28.1044 5.67997 26.9995 4.31268 25.6066C1.55132 22.7936 0 18.9782 0 15C0 11.0218 1.55132 7.20644 4.31268 4.3934C7.07404 1.58035 10.8193 0 14.7244 0C16.658 0 18.5728 0.387987 20.3592 1.14181C22.1456 1.89563 23.7689 3.00052 25.1361 4.3934C26.5034 5.78628 27.588 7.43986 28.328 9.25975C29.068 11.0796 29.4488 13.0302 29.4488 15C29.4488 18.9782 27.8975 22.7936 25.1361 25.6066C22.3748 28.4196 18.6296 30 14.7244 30Z" fill="#FF0000"/>
</svg>
