<svg width="30" height="30" viewBox="0 0 30 30" fill="none" xmlns="http://www.w3.org/2000/svg">
<path d="M3.33333 30C2.44928 30 1.60143 29.6488 0.976311 29.0237C0.351189 28.3986 0 27.5507 0 26.6667V3.33333C0 2.44928 0.351189 1.60143 0.976311 0.976311C1.60143 0.351189 2.44928 0 3.33333 0H26.6667C27.5507 0 28.3986 0.351189 29.0237 0.976311C29.6488 1.60143 30 2.44928 30 3.33333V26.6667C30 28.5167 28.5 30 26.6667 30H3.33333ZM5 16.6667H19.1667L13.3333 22.5L15.7 24.8667L25.5667 15L15.7 5.13333L13.3333 7.5L19.1667 13.3333H5V16.6667Z" fill="#5FA30E"/>
</svg>
