<svg width="30" height="30" viewBox="0 0 30 30" fill="none" xmlns="http://www.w3.org/2000/svg">
<path d="M16.2987 24V12L21.3847 17.25L23.4481 15.12L14.8456 6.24L6.24317 15.12L8.3066 17.25L13.3925 12V24H16.2987ZM14.8456 0C16.7539 0 18.6435 0.387987 20.4065 1.14181C22.1695 1.89563 23.7714 3.00052 25.1207 4.3934C26.4701 5.78628 27.5404 7.43986 28.2707 9.25975C29.0009 11.0796 29.3768 13.0302 29.3768 15C29.3768 18.9782 27.8458 22.7936 25.1207 25.6066C22.3956 28.4196 18.6995 30 14.8456 30C12.9374 30 11.0478 29.612 9.28479 28.8582C7.52178 28.1044 5.91988 26.9995 4.57054 25.6066C1.84541 22.7936 0.314453 18.9782 0.314453 15C0.314453 11.0218 1.84541 7.20644 4.57054 4.3934C7.29566 1.58035 10.9917 0 14.8456 0Z" fill="#5B9223"/>
</svg>
