<svg width="70" height="70" viewBox="0 0 70 70" fill="none" xmlns="http://www.w3.org/2000/svg">
<path d="M14.2188 16.4062C14.2188 15.1014 13.6445 13.9267 12.7345 13.125C13.6445 12.3233 14.2188 11.1486 14.2188 9.84375C14.2188 7.43094 12.2566 5.46875 9.84375 5.46875H5.46875V20.7812H9.84375C12.2566 20.7812 14.2188 18.8191 14.2188 16.4062ZM9.84375 18.5938H7.65625V14.2188H9.84375C11.0502 14.2188 12.0312 15.1998 12.0312 16.4062C12.0312 17.6127 11.0502 18.5938 9.84375 18.5938ZM9.84375 12.0312H7.65625V7.65625H9.84375C11.0502 7.65625 12.0312 8.63734 12.0312 9.84375C12.0312 11.0502 11.0502 12.0312 9.84375 12.0312Z" fill="#7BC30A"/>
<path d="M20.7812 20.7812C23.1941 20.7812 25.1562 18.8191 25.1562 16.4062V5.46875H22.9688V16.4062C22.9688 17.6127 21.9877 18.5938 20.7812 18.5938C19.5748 18.5938 18.5938 17.6127 18.5938 16.4062V5.46875H16.4062V16.4062C16.4062 18.8191 18.3684 20.7812 20.7812 20.7812Z" fill="#7BC30A"/>
<path d="M31.7188 20.7814H33.9063V14.477L38.1664 5.95779L36.2086 4.97998L32.8125 11.7733L29.4164 4.97998L27.4586 5.95779L31.7188 14.477V20.7814Z" fill="#7BC30A"/>
<path d="M68.9062 52.6663V47.0312H66.7188V22.9688H60.1562V47.0312H57.9688V27.3438H51.4062V47.0312H49.2188V31.7188H42.6562V47.0312H41.8217L40.717 38.9309C40.495 37.3133 39.0972 36.0938 37.4653 36.0938H32.8125C31.9692 36.0938 31.2069 36.423 30.625 36.9469C30.0431 36.4219 29.2808 36.0938 28.4375 36.0938C28.0055 36.0938 27.5953 36.1823 27.2169 36.3344C26.8395 34.9398 25.5752 33.9062 24.0625 33.9062C23.2192 33.9062 22.4569 34.2355 21.875 34.7594C21.2931 34.2344 20.5308 33.9062 19.6875 33.9062C19.3025 33.9062 18.9372 33.985 18.5938 34.1075V25.1562H39.375C41.1841 25.1562 42.6562 23.6841 42.6562 21.875V4.375C42.6562 2.56594 41.1841 1.09375 39.375 1.09375H4.375C2.56594 1.09375 1.09375 2.56594 1.09375 4.375V21.875C1.09375 23.6841 2.56594 25.1562 4.375 25.1562H12.0312V44.8591C12.0312 45.3567 11.9164 45.8555 11.6966 46.3017L10.7789 41.7134C10.1205 38.4311 7.21438 36.0478 3.86641 36.0478C2.33844 36.0478 1.09375 37.2914 1.09375 38.8205C1.09375 39.3695 1.25453 39.9011 1.55969 40.3583L2.68516 42.0459C3.10187 42.6716 3.37094 43.3956 3.46391 44.1416L4.22078 50.1933C4.34547 51.2017 4.66484 52.1598 5.13625 52.978L8.75 60.4078V62.3438H6.5625V68.9062H30.625V62.3438H28.4375V60.5205L30.1875 58.1875C31.1752 56.8706 31.7188 55.2398 31.7188 53.5938V42.455C32.0622 42.5775 32.4275 42.6562 32.8125 42.6562H39.0173L41.4302 60.3531C39.6167 60.8869 38.2812 62.5472 38.2812 64.5312C38.2812 66.9441 40.2434 68.9062 42.6562 68.9062C45.0691 68.9062 47.0312 66.9441 47.0312 64.5312C47.0312 63.7306 46.7994 62.9902 46.4231 62.3438H60.7655C60.3881 62.9902 60.1562 63.7306 60.1562 64.5312C60.1562 66.9441 62.1184 68.9062 64.5312 68.9062C66.9441 68.9062 68.9062 66.9441 68.9062 64.5312C68.9062 62.1184 66.9441 60.1562 64.5312 60.1562H43.6111L43.2797 57.7259L65.8842 55.9377C67.5784 55.8031 68.9062 54.367 68.9062 52.6663ZM4.375 22.9688C3.77125 22.9688 3.28125 22.4777 3.28125 21.875V4.375C3.28125 3.77234 3.77125 3.28125 4.375 3.28125H39.375C39.9787 3.28125 40.4688 3.77234 40.4688 4.375V21.875C40.4688 22.4777 39.9787 22.9688 39.375 22.9688H18.5938C18.5938 21.1597 17.1216 19.6875 15.3125 19.6875C13.5034 19.6875 12.0312 21.1597 12.0312 22.9688H4.375ZM28.4375 66.7188H8.75V64.5312H28.4375V66.7188ZM29.5312 53.5938C29.5312 54.7695 29.143 55.9355 28.4375 56.875L26.25 59.792V62.3438H10.9375V59.9047L7.07 51.9575C6.70906 51.3275 6.48156 50.6428 6.39187 49.9231L5.63391 43.8703C5.49937 42.7908 5.11 41.7397 4.50516 40.833L3.37969 39.1453C3.31516 39.0491 3.28125 38.9364 3.28125 38.8205C3.28125 38.4978 3.54375 38.2353 3.86641 38.2353C6.17531 38.2353 8.18016 39.8781 8.63406 42.1433L10.0406 49.1728H12.7072L13.6413 47.3047C14.0186 46.5489 14.2188 45.7023 14.2188 44.8591V22.9688C14.2188 22.3661 14.7087 21.875 15.3125 21.875C15.9163 21.875 16.4062 22.3661 16.4062 22.9688V37.1875V41.5625H18.5938V37.1875C18.5938 36.5848 19.0837 36.0938 19.6875 36.0938C20.2913 36.0938 20.7812 36.5848 20.7812 37.1875V41.5625H22.9688V37.1875C22.9688 36.5848 23.4587 36.0938 24.0625 36.0938C24.6663 36.0938 25.1562 36.5848 25.1562 37.1875V39.375V41.5625H27.3438V39.375C27.3438 38.7723 27.8337 38.2812 28.4375 38.2812C29.0413 38.2812 29.5312 38.7723 29.5312 39.375V53.5938ZM32.8125 40.4688C32.2087 40.4688 31.7188 39.9777 31.7188 39.375C31.7188 38.7723 32.2087 38.2812 32.8125 38.2812H37.4653C38.01 38.2812 38.4759 38.6881 38.5492 39.2273L38.7188 40.4688H32.8125ZM64.5312 62.3438C65.7377 62.3438 66.7188 63.3248 66.7188 64.5312C66.7188 65.7377 65.7377 66.7188 64.5312 66.7188C63.3248 66.7188 62.3438 65.7377 62.3438 64.5312C62.3438 63.3248 63.3248 62.3438 64.5312 62.3438ZM62.3438 25.1562H64.5312V47.0312H62.3438V25.1562ZM53.5938 29.5312H55.7812V47.0312H53.5938V29.5312ZM44.8438 33.9062H47.0312V47.0312H44.8438V33.9062ZM44.8438 64.5312C44.8438 65.7377 43.8627 66.7188 42.6562 66.7188C41.4498 66.7188 40.4688 65.7377 40.4688 64.5312C40.4688 63.3248 41.4498 62.3438 42.6562 62.3438C43.8627 62.3438 44.8438 63.3248 44.8438 64.5312ZM42.9833 55.5548L42.1203 49.2188H66.7188V52.6663C66.7188 53.2328 66.2769 53.7119 65.7114 53.7567L42.9833 55.5548Z" fill="#7BC30A"/>
</svg>
