<svg width="40" height="40" viewBox="0 0 40 40" fill="none" xmlns="http://www.w3.org/2000/svg">
<g clip-path="url(#clip0)">
<path d="M15.0002 36.6667C15.9206 36.6667 16.6668 35.9205 16.6668 35C16.6668 34.0795 15.9206 33.3333 15.0002 33.3333C14.0797 33.3333 13.3335 34.0795 13.3335 35C13.3335 35.9205 14.0797 36.6667 15.0002 36.6667Z" stroke="#ED881C" stroke-width="2" stroke-linecap="round" stroke-linejoin="round"/>
<path d="M33.3332 36.6667C34.2536 36.6667 34.9998 35.9205 34.9998 35C34.9998 34.0795 34.2536 33.3333 33.3332 33.3333C32.4127 33.3333 31.6665 34.0795 31.6665 35C31.6665 35.9205 32.4127 36.6667 33.3332 36.6667Z" stroke="#ED881C" stroke-width="2" stroke-linecap="round" stroke-linejoin="round"/>
<path d="M0 1.66666H6.66667L11.1333 23.9833C11.2857 24.7507 11.7032 25.4399 12.3126 25.9305C12.922 26.4211 13.6845 26.6816 14.4667 26.6667H30.6667C31.4488 26.6816 32.2114 26.4211 32.8208 25.9305C33.4302 25.4399 33.8476 24.7507 34 23.9833L36.6667 9.99999H8.33333" stroke="#ED881C" stroke-width="2" stroke-linecap="round" stroke-linejoin="round"/>
</g>
<defs>
<clipPath id="clip0">
<rect width="40" height="40" fill="white"/>
</clipPath>
</defs>
</svg>
