<svg width="80" height="80" viewBox="0 0 80 80" fill="none" xmlns="http://www.w3.org/2000/svg">
<path d="M60.4202 47.5632C54.8598 47.5632 50.3362 52.0868 50.3362 57.6473C50.3362 63.2078 54.8598 67.7314 60.4202 67.7314C65.9816 67.7314 70.5043 63.2078 70.5043 57.6473C70.5043 52.0868 65.9807 47.5632 60.4202 47.5632ZM60.4202 62.6893C57.6396 62.6893 55.3782 60.4279 55.3782 57.6473C55.3782 54.8667 57.6396 52.6053 60.4202 52.6053C63.2009 52.6053 65.4623 54.8667 65.4623 57.6473C65.4623 60.4281 63.2009 62.6893 60.4202 62.6893Z" fill="#7BC30A"/>
<path d="M25.9664 47.5632C20.4059 47.5632 15.8823 52.0868 15.8823 57.6473C15.8823 63.2078 20.4059 67.7314 25.9664 67.7314C31.5269 67.7314 36.0504 63.2078 36.0504 57.6473C36.0504 52.0868 31.5269 47.5632 25.9664 47.5632ZM25.9664 62.6893C23.1858 62.6893 20.9244 60.4279 20.9244 57.6473C20.9244 54.8667 23.1858 52.6053 25.9664 52.6053C28.7462 52.6053 31.0084 54.8667 31.0084 57.6473C31.0084 60.4281 28.747 62.6893 25.9664 62.6893Z" fill="#7BC30A"/>
<path d="M67.211 18.6991C66.7824 17.8478 65.911 17.3108 64.958 17.3108H51.6807V22.3528H63.4033L70.268 36.0066L74.7739 33.741L67.211 18.6991Z" fill="#7BC30A"/>
<path d="M52.8574 55.21H33.7817V60.252H52.8574V55.21Z" fill="#7BC30A"/>
<path d="M18.4031 55.21H9.66376C8.27126 55.21 7.14282 56.3386 7.14282 57.7309C7.14282 59.1234 8.27142 60.2518 9.66376 60.2518H18.4033C19.7958 60.2518 20.9242 59.1232 20.9242 57.7309C20.9242 56.3384 19.7956 55.21 18.4031 55.21Z" fill="#7BC30A"/>
<path d="M79.4704 39.7982L74.5117 33.4116C74.0353 32.7965 73.3 32.4368 72.5209 32.4368H54.2015V14.7897C54.2015 13.3972 53.073 12.2688 51.6806 12.2688H9.66376C8.27126 12.2688 7.14282 13.3974 7.14282 14.7897C7.14282 16.1821 8.27142 17.3107 9.66376 17.3107H49.1595V34.9577C49.1595 36.3502 50.2881 37.4786 51.6805 37.4786H71.2864L74.9578 42.208V55.2097H67.983C66.5905 55.2097 65.462 56.3383 65.462 57.7307C65.462 59.1232 66.5906 60.2516 67.983 60.2516H77.4787C78.8712 60.2516 79.9997 59.123 79.9998 57.7307V41.3444C79.9998 40.7847 79.8133 40.2402 79.4704 39.7982Z" fill="#7BC30A"/>
<path d="M18.2353 42.4368H6.63861C5.24611 42.4368 4.11768 43.5654 4.11768 44.9577C4.11768 46.3502 5.24627 47.4786 6.63861 47.4786H18.2352C19.6277 47.4786 20.7561 46.3501 20.7561 44.9577C20.7563 43.5654 19.6277 42.4368 18.2353 42.4368Z" fill="#7BC30A"/>
<path d="M24.0336 32.521H2.52094C1.12859 32.521 0 33.6496 0 35.0421C0 36.4346 1.12859 37.563 2.52094 37.563H24.0336C25.4261 37.563 26.5545 36.4344 26.5545 35.0421C26.5545 33.6497 25.4261 32.521 24.0336 32.521Z" fill="#7BC30A"/>
<path d="M28.1513 22.605H6.63861C5.24611 22.605 4.11768 23.7336 4.11768 25.1259C4.11768 26.5184 5.24627 27.6469 6.63861 27.6469H28.1513C29.5438 27.6469 30.6722 26.5183 30.6722 25.1259C30.6724 23.7336 29.5438 22.605 28.1513 22.605Z" fill="#7BC30A"/>
</svg>
