<svg width="70" height="70" viewBox="0 0 70 70" fill="none" xmlns="http://www.w3.org/2000/svg">
<g clip-path="url(#clip0)">
<path d="M21.2746 21.9819C21.2746 19.8889 19.5719 18.1863 17.4789 18.1863H12.031C9.938 18.1863 8.23535 19.8889 8.23535 21.9819V26.7436C8.23535 28.8366 9.938 30.5392 12.031 30.5392H17.4789C19.5719 30.5392 21.2746 28.8366 21.2746 26.7436V21.9819ZM17.1569 26.4216H12.353V22.3039H17.1569V26.4216Z" fill="#5FA30E"/>
<path d="M8.23535 34.6567H16.4706V38.7744H8.23535V34.6567Z" fill="#5FA30E"/>
<path d="M20.5879 34.6567H28.8232V38.7744H20.5879V34.6567Z" fill="#5FA30E"/>
<path d="M65.8824 34.657V32.4021C65.8824 27.2949 62.3777 22.9912 57.6471 21.7691V11.3358C57.6471 8.30189 55.1788 5.8335 52.1448 5.8335H5.50227C2.46826 5.8335 0 8.30175 0 11.3358V41.5077C0 44.5417 2.46826 47.01 5.50227 47.01H39.8039V49.0688C39.8039 57.3939 46.5769 64.1668 54.902 64.1668C63.227 64.1668 70 57.3939 70 49.0688V34.657H65.8824ZM61.7647 32.4021V34.657H48.0392V32.4021C48.0392 28.6179 51.1178 25.5393 54.902 25.5393C58.6861 25.5393 61.7647 28.6179 61.7647 32.4021ZM5.50227 42.8923C4.73873 42.8923 4.11765 42.2712 4.11765 41.5077V11.3358C4.11765 10.5722 4.73873 9.95114 5.50227 9.95114H52.1448C52.9082 9.95114 53.5294 10.5722 53.5294 11.3358V21.5106C48.1206 22.1885 43.9216 26.8126 43.9216 32.4022V34.657H32.9412V38.7747H39.8039V42.8923H5.50227ZM65.8824 49.0688C65.8824 55.1234 60.9566 60.0492 54.902 60.0492C48.8474 60.0492 43.9216 55.1234 43.9216 49.0688V38.7747H65.8824V49.0688Z" fill="#5FA30E"/>
<path d="M53.4549 53.9645L61.7695 46.4814L59.0148 43.4209L53.604 48.2907L50.8675 45.5542L47.9561 48.4657L53.4549 53.9645Z" fill="#5FA30E"/>
</g>
<defs>
<clipPath id="clip0">
<rect width="70" height="70" fill="white"/>
</clipPath>
</defs>
</svg>
