<svg width="70" height="70" viewBox="0 0 70 70" fill="none" xmlns="http://www.w3.org/2000/svg">
<g clip-path="url(#clip0)">
<path d="M65.3334 0H4.66662C2.08934 0 0 2.08934 0 4.66662V28C0 30.5773 2.08934 32.6666 4.66662 32.6666H30.3332V50.6123L25.8264 48.3584C24.3202 47.5643 22.508 47.6176 21.0511 48.4989C19.5943 49.3802 18.7057 50.9605 18.7098 52.6634C18.7039 54.1953 19.4279 55.6384 20.6593 56.5496C23.2403 58.4497 25.6979 60.512 28.0175 62.7236C29.2242 63.9863 30.2441 65.4151 31.0462 66.9668C31.2158 67.2757 31.4137 67.5683 31.6377 67.8405C31.6628 67.8785 31.69 67.9152 31.7193 67.9502C32.8293 69.2527 34.4553 70.0022 36.1666 70H49C52.8644 69.9962 55.9962 66.8644 56 63V48.4166C56 46.1614 54.1718 44.3332 51.9166 44.3332C51.3037 44.3368 50.6996 44.4799 50.1504 44.752C50.0623 42.5677 48.2695 40.8401 46.0834 40.8332C45.4705 40.8368 44.8663 40.9799 44.3171 41.252C44.2745 39.88 43.5389 38.6233 42.3637 37.9143C41.1884 37.2053 39.7336 37.1406 38.5001 37.7427V32.6665H65.3335C67.9108 32.6665 70.0001 30.5771 70.0001 27.9999V4.66662C70 2.08934 67.9107 0 65.3334 0V0ZM40.25 39.6666C41.2165 39.6666 42 40.4502 42 41.4166V51.3332C42 51.9776 42.5223 52.4999 43.1666 52.4999C43.811 52.4999 44.3332 51.9775 44.3332 51.3332V44.9166C44.3332 43.9502 45.1168 43.1666 46.0832 43.1666C47.0497 43.1666 47.8332 43.9502 47.8332 44.9166V51.3332C47.8332 51.9776 48.3556 52.4999 48.9999 52.4999C49.6442 52.4999 50.1665 51.9775 50.1665 51.3332V48.4166C50.1665 47.4502 50.95 46.6666 51.9165 46.6666C52.8829 46.6666 53.6665 47.4502 53.6665 48.4166V63C53.6665 65.5773 51.5771 67.6666 48.9999 67.6666H36.1665C35.1758 67.6672 34.2312 67.248 33.5672 66.5128C33.5438 66.4791 33.5182 66.4464 33.4913 66.4137C33.3378 66.2364 33.2037 66.0432 33.0911 65.8375C32.1824 64.0891 31.0264 62.4809 29.6588 61.0623C27.264 58.7758 24.7261 56.6444 22.0603 54.6807C21.42 54.2084 21.0433 53.4591 21.0465 52.6635C21.05 52.1407 21.2105 51.631 21.5074 51.2005C22.2582 50.167 23.6559 49.8449 24.7834 50.4457L30.9784 53.5444C31.3402 53.7251 31.7697 53.7057 32.1136 53.493C32.4576 53.2803 32.6668 52.9047 32.6666 52.5003V32.0834C32.6666 31.1169 33.4502 30.3334 34.4166 30.3334C35.3831 30.3334 36.1666 31.1169 36.1666 32.0834V51.3334C36.1666 51.9777 36.689 52.5 37.3332 52.5C37.9776 52.5 38.4999 51.9776 38.4999 51.3334V41.4168C38.5 40.4502 39.2835 39.6666 40.25 39.6666ZM67.6666 28C67.6666 29.2887 66.622 30.3334 65.3332 30.3334H38.0905C37.4284 28.9006 35.9939 27.983 34.4155 27.983C32.8371 27.983 31.4027 28.9004 30.7405 30.3334H4.66662C3.37791 30.3334 2.33324 29.2887 2.33324 28V4.66662C2.33324 3.37791 3.37791 2.33324 4.66662 2.33324H65.3332C66.622 2.33324 67.6666 3.37791 67.6666 4.66662V28Z" fill="#7BC30A"/>
<path d="M12.8334 8.16663C15.4071 8.16663 17.5 9.73698 17.5 11.6666C17.5 12.311 18.0223 12.8333 18.6666 12.8333C19.311 12.8333 19.8333 12.3108 19.8333 11.6666C19.8333 8.45019 16.6938 5.83325 12.8333 5.83325C8.97272 5.83325 5.83325 8.45005 5.83325 11.6666C5.83325 14.8832 8.97286 17.5 12.8334 17.5C15.407 17.5 17.5 19.0704 17.5 21C17.5 22.9297 15.407 24.5 12.8334 24.5C10.2598 24.5 8.16677 22.9297 8.16677 21C8.16677 20.3557 7.64436 19.8334 7.00015 19.8334C6.35593 19.8334 5.83353 20.3557 5.83353 21C5.83353 24.2165 8.973 26.8334 12.8335 26.8334C16.6941 26.8334 19.8335 24.2166 19.8335 21C19.8335 17.7834 16.6941 15.1666 12.8335 15.1666C10.2598 15.1666 8.1669 13.5963 8.1669 11.6666C8.1669 9.73698 10.2597 8.16663 12.8334 8.16663Z" fill="#7BC30A"/>
<path d="M33.8335 8.16649C34.4778 8.16649 35.0001 7.64409 35.0001 6.99987C35.0001 6.35565 34.4777 5.83325 33.8335 5.83325H24.5001C23.8558 5.83325 23.3335 6.35565 23.3335 6.99987V25.6665C23.3335 26.3109 23.8559 26.8331 24.5001 26.8331H33.8335C34.4778 26.8331 35.0001 26.3107 35.0001 25.6665C35.0001 25.0221 34.4777 24.4999 33.8335 24.4999H25.6669V17.4999H32.6669C33.3112 17.4999 33.8335 16.9775 33.8335 16.3333C33.8335 15.6889 33.3112 15.1666 32.6669 15.1666H25.6669V8.16663H33.8335V8.16649Z" fill="#7BC30A"/>
<path d="M49 24.4999H40.8334V6.99987C40.8334 6.35552 40.3111 5.83325 39.6668 5.83325C39.0224 5.83325 38.5 6.35552 38.5 6.99987V25.6665C38.5 26.3109 39.0223 26.8331 39.6666 26.8331H49C49.6444 26.8331 50.1666 26.3107 50.1666 25.6665C50.1666 25.0223 49.6444 24.4999 49 24.4999Z" fill="#7BC30A"/>
<path d="M64.1666 24.4999H56V6.99987C56 6.35552 55.4777 5.83325 54.8334 5.83325C54.189 5.83325 53.6667 6.35565 53.6667 6.99987V25.6665C53.6667 26.3109 54.189 26.8331 54.8334 26.8331H64.1667C64.8111 26.8331 65.3334 26.3107 65.3334 25.6665C65.3334 25.0223 64.811 24.4999 64.1666 24.4999Z" fill="#7BC30A"/>
</g>
<defs>
<clipPath id="clip0">
<rect width="70" height="70" fill="white"/>
</clipPath>
</defs>
</svg>
