<svg width="40" height="40" viewBox="0 0 40 40" fill="none" xmlns="http://www.w3.org/2000/svg">
<path d="M38.3334 4.99967C36.7373 6.12547 34.9702 6.98652 33.1 7.54967C32.0963 6.39552 30.7622 5.57749 29.2784 5.20621C27.7946 4.83494 26.2325 4.92833 24.8035 5.47376C23.3745 6.01919 22.1474 6.99034 21.2883 8.25586C20.4292 9.52139 19.9795 11.0202 20 12.5497V14.2163C17.0711 14.2923 14.1688 13.6427 11.5517 12.3254C8.93459 11.0081 6.68388 9.06406 5.00002 6.66634C5.00002 6.66634 -1.66665 21.6663 13.3334 28.333C9.9009 30.6629 5.81195 31.8312 1.66669 31.6663C16.6667 39.9997 35 31.6663 35 12.4997C34.9985 12.0354 34.9538 11.5723 34.8667 11.1163C36.5677 9.43882 37.7681 7.32086 38.3334 4.99967V4.99967Z" stroke="#5B9223" stroke-width="2" stroke-linecap="round" stroke-linejoin="round"/>
</svg>
