<svg width="70" height="74" viewBox="0 0 70 74" fill="none" xmlns="http://www.w3.org/2000/svg">
<path d="M67.6853 43.0425H66.6039V33.1371C66.6039 31.5689 65.8364 30.1805 64.6643 29.3368V27.9881C64.6643 26.0317 63.0993 24.4401 61.1755 24.4401H60.368L63.4573 19.8301C64.4928 18.2849 64.0991 16.1709 62.5796 15.1177L41.6169 0.589999C40.8808 0.0797639 39.9937 -0.108542 39.1181 0.0603879C38.2429 0.229031 37.4846 0.734099 36.983 1.48273L18.8895 28.4833H13.8545L15.0693 15.9778C15.083 15.8369 15.173 15.7148 15.2986 15.6667C16.8637 15.0666 18.22 13.946 19.1176 12.5113C19.1883 12.3983 19.3217 12.3337 19.4597 12.3479L27.3568 13.1413C27.9231 13.1972 28.4268 12.7778 28.4827 12.2023C28.5385 11.6267 28.1252 11.1142 27.5592 11.0573L19.6621 10.2639C18.7454 10.1727 17.8712 10.6022 17.3801 11.387C16.7201 12.4419 15.7229 13.2658 14.5722 13.707C13.7061 14.0391 13.1113 14.8302 13.0199 15.7719L11.7852 28.4831H10.4723L12.3934 8.70467C12.4625 7.99278 13.0873 7.46977 13.7882 7.5411L29.7468 9.14429C30.3127 9.19983 30.8167 8.78074 30.8726 8.2052C30.9285 7.62966 30.5151 7.11713 29.9492 7.06029L13.9906 5.45711C12.1609 5.27354 10.5248 6.63775 10.344 8.49871L8.79546 24.4401H6.15838C4.23472 24.4401 2.66955 26.0317 2.66955 27.9881V28.9081C1.09576 29.645 0 31.2628 0 33.1371V68.8313C0 71.3975 2.05293 73.4853 4.57655 73.4853H62.0275C64.551 73.4853 66.6039 71.3975 66.6039 68.8313V58.926H67.6853C68.9617 58.926 70 57.8701 70 56.5722V45.3965C70.0001 44.0985 68.9617 43.0425 67.6853 43.0425ZM61.1755 26.5345C61.9638 26.5343 62.605 27.1865 62.605 27.9882V28.5217C62.4156 28.4973 62.2232 28.4834 62.0275 28.4834H57.6587L58.9646 26.5345H61.1755ZM38.6847 2.66194C38.8766 2.37561 39.1666 2.18242 39.5014 2.11783C39.5814 2.10248 39.6617 2.09473 39.7415 2.09473C39.9951 2.09473 40.2429 2.17194 40.4572 2.32035L61.4199 16.848C62.0011 17.2509 62.1518 18.0595 61.7558 18.6506L55.1668 28.483H53.5856L56.816 23.6624C57.3399 22.8806 57.3831 21.8857 56.9283 21.0657C56.324 19.9763 56.079 18.6936 56.2385 17.4537C56.357 16.5313 55.9579 15.6308 55.1969 15.1035L44.3299 7.57239C43.5687 7.04494 42.5986 6.99657 41.7978 7.44623C40.7216 8.05048 39.4581 8.28773 38.2401 8.11435C37.3368 7.98546 36.4207 8.40025 35.9046 9.17027L22.9628 28.4831H21.3815L38.6847 2.66194ZM39.1381 20.4435C34.6542 20.4435 30.9734 23.9991 30.6735 28.4831H25.4545L37.606 10.3496C37.6061 10.3496 37.6061 10.3496 37.6061 10.3496C37.6751 10.2464 37.7896 10.185 37.9071 10.185C37.9228 10.185 37.9385 10.1861 37.9541 10.1883C39.6108 10.424 41.3291 10.1016 42.7929 9.27964C42.9081 9.21476 43.056 9.22409 43.17 9.30303L54.0372 16.8343C54.151 16.9132 54.2135 17.0498 54.1965 17.1825C53.9796 18.8687 54.313 20.6132 55.1348 22.0946C55.2007 22.2136 55.1927 22.366 55.1145 22.483L51.0939 28.483H47.6032C47.303 23.9991 43.6224 20.4435 39.1381 20.4435ZM45.5383 28.4833H32.7381C33.0331 25.155 35.79 22.5378 39.1381 22.5378C42.4864 22.5377 45.2434 25.155 45.5383 28.4833ZM4.72883 27.9881C4.72883 27.1864 5.37 26.5342 6.15838 26.5342H8.59209L8.40283 28.4831H4.72883V27.9881ZM2.05928 33.1371C2.05928 31.7257 3.1885 30.5773 4.57655 30.5773H62.0275C63.4155 30.5773 64.5446 31.7257 64.5446 33.1371V36.0426H2.05928V33.1371ZM64.5446 68.8313C64.5446 70.2427 63.4155 71.3911 62.0275 71.3911H4.57655C3.1885 71.3911 2.05928 70.2427 2.05928 68.8313V65.9258H7.61177C8.18054 65.9258 8.64135 65.457 8.64135 64.8787C8.64135 64.3005 8.1804 63.8317 7.61177 63.8317H2.05928V38.1368H64.5446V43.0425H54.7547H54.7546C51.67 43.0425 48.998 44.8711 47.7299 47.5178C47.7257 47.5267 47.7209 47.5353 47.7165 47.5442C47.7058 47.5668 47.6965 47.5902 47.686 47.6128C47.535 47.9391 47.4038 48.2768 47.2969 48.6253C47.2966 48.6263 47.2964 48.6271 47.2961 48.6281C47.0681 49.3729 46.9452 50.1642 46.9452 50.9843C46.9452 55.3634 50.4484 58.926 54.7544 58.926H54.7546H64.5445V63.8317H14.2047C13.6359 63.8317 13.1751 64.3005 13.1751 64.8787C13.1751 65.457 13.6361 65.9258 14.2047 65.9258H64.5446V68.8313ZM67.9409 56.572C67.9409 56.7153 67.8263 56.8318 67.6853 56.8318H54.7549C52.575 56.8318 50.6745 55.5919 49.6997 53.7692C49.6554 53.6864 49.6131 53.6023 49.5726 53.5172C49.4917 53.3468 49.4187 53.1719 49.3542 52.9928C49.1281 52.3661 49.0048 51.6896 49.0048 50.9843C49.0048 50.279 49.1283 49.6024 49.3542 48.9758C49.4189 48.7968 49.4918 48.6218 49.5726 48.4513C49.6131 48.3662 49.6554 48.2821 49.6997 48.1993C50.6745 46.3767 52.575 45.1367 54.7549 45.1367H67.6853C67.8261 45.1367 67.9409 45.2533 67.9409 45.3965V56.572Z" fill="#7BC30A"/>
</svg>
